<svg width="800" height="400" xmlns="http://www.w3.org/2000/svg"><rect width="800" height="400" fill="black"/><line x1="0" y1="200" x2="800" y2="200" stroke="white" stroke-width="1"/><line x1="400" y1="0" x2="400" y2="400" stroke="white" stroke-width="1"/><path d="M 0 251.0860125054801 L 1 245.15079462757092 L 2 239.14334510991313 L 3 233.0732745902147 L 4 226.9502938864273 L 5 220.78419846151127 L 6 214.5848527527824 L 7 208.3621743909187 L 8 202.12611833386464 L 9 195.8866609410244 L 10 189.6537840132127 L 11 183.4374588239051 L 12 177.2476301673253 L 13 171.09420044889805 L 14 164.98701384351057 L 15 158.93584054693505 L 16 152.95036114559736 L 17 147.040151129706 L 18 141.2146655745083 L 19 135.48322401418915 L 20 129.85499553260217 L 21 124.33898409469374 L 22 118.94401414207766 L 23 113.67871647581306 L 24 108.55151444896188 L 25 103.5706104910228 L 26 98.74397298579211 L 27 94.0793235236502 L 28 89.58412454866479 L 29 85.26556742027078 L 30 81.130560908631 L 31 77.18572014207595 L 32 73.43735602431138 L 33 69.89146513831699 L 34 66.55372015309433 L 35 63.42946074860515 L 36 60.52368507342376 L 37 57.841041748764525 L 38 55.38582243168031 L 39 53.161954949326116 L 40 51.17299701527412 L 41 49.42213053793026 L 42 47.91215653016013 L 43 46.645490628265435 L 44 45.62415922748173 L 45 44.84979624017768 L 46 44.323640481944466 L 47 44.04653368975465 L 48 44.018919175362754 L 49 44.24084111610102 L 50 44.711944484205134 L 51 45.431475614782755 L 52 46.398283411516815 L 53 47.610821188173816 L 54 49.06714914297211 L 55 50.76493746185059 L 56 52.701470045674824 L 57 54.873648855415354 L 58 57.27799886835024 L 59 59.910673637359224 L 60 62.76746144441947 L 61 65.84379203845498 L 62 69.13474394676442 L 63 72.6350523483265 L 64 76.33911749639167 L 65 80.24101367688114 L 66 84.33449868826658 L 67 88.61302382775965 L 68 93.06974436784085 L 69 97.69753050636204 L 70 102.4889787727104 L 71 107.43642387178042 L 72 112.53195094681271 L 73 117.76740824147458 L 74 123.134420140933 L 75 128.62440057104988 L 76 134.22856673427057 L 77 139.9379531602259 L 78 145.74342604857134 L 79 151.63569788112082 L 80 157.6053422798927 L 81 163.64280908730575 L 82 169.73843964439175 L 83 175.88248224259178 L 84 182.06510772440728 L 85 188.27642520795774 L 86 194.50649791027928 L 87 200.74535904406005 L 88 206.98302776237148 L 89 213.20952512589653 L 90 219.41489006710162 L 91 225.58919532582195 L 92 231.72256333075788 L 93 237.8051820014841 L 94 243.82732044568309 L 95 249.77934452649893 L 96 255.65173227509928 L 97 261.43508912379605 L 98 267.12016293534793 L 99 272.69785880440793 L 100 278.15925360743 L 101 283.4956102777651 L 102 288.69839178310286 L 103 293.75927478290185 L 104 298.67016294396035 L 105 303.4231998928204 L 106 308.01078178429145 L 107 312.42556946597864 L 108 316.6605002193628 L 109 320.70879905864194 L 110 324.5639895692645 L 111 328.21990426880996 L 112 331.6706944736462 L 113 334.9108396555746 L 114 337.93515627349836 L 115 340.73880606598175 L 116 343.3173037914371 L 117 345.66652440355347 L 118 347.7827096504923 L 119 349.6624740872868 L 120 351.3028104918335 L 121 352.7010946758046 L 122 353.85508968279066 L 123 354.76294936695285 L 124 355.42322134646304 L 125 355.83484932700446 L 126 355.99717479161745 L 127 355.90993805418634 L 128 355.5732786748815 L 129 354.98773523689283 L 130 354.15424448481207 L 131 353.0741398260405 L 132 351.74914919762216 L 133 350.1813923019129 L 134 348.37337721550904 L 135 346.32799637685923 L 136 344.04852195898104 L 137 341.53860063468073 L 138 338.80224774265616 L 139 335.8438408638102 L 140 332.6681128180561 L 141 329.28014409281434 L 142 325.6853547153173 L 143 321.8894955817214 L 144 317.8986392569005 L 145 313.71917025963666 L 146 309.35777484875337 L 147 304.8214303265264 L 148 300.1173938764897 L 149 295.2531909534886 L 150 290.2366032445592 L 151 285.0756562198872 L 152 279.7786062937686 L 153 274.3539276161084 L 154 268.81029851558753 L 155 263.1565876161895 L 156 257.401839649292 L 157 251.55526098402862 L 158 245.62620489905967 L 159 239.62415661932374 L 160 233.55871814169922 L 161 227.43959287385962 L 162 221.27657011088922 L 163 215.0795093745012 L 164 208.85832463990417 L 165 202.6229684755587 L 166 196.38341612118882 L 167 190.14964952952855 L 168 183.93164139732474 L 169 177.7393392111518 L 170 171.58264933355304 L 171 165.47142115497604 L 172 159.41543133684684 L 173 153.4243681709994 L 174 147.50781608047322 L 175 141.6752402864832 L 176 135.93597166608293 L 177 130.2991918247529 L 178 124.7739184077908 L 179 119.36899067400111 L 180 114.09305535476864 L 181 108.95455282113086 L 182 103.96170358098664 L 183 99.12249512803538 L 184 94.44466916349282 L 185 89.93570921101886 L 186 85.60282864467767 L 187 81.45295914907648 L 188 77.49273963015033 L 189 73.72850559432737 L 190 70.16627901307146 L 191 66.81175868901124 L 192 63.67031113907257 L 193 60.746962009195386 L 194 58.046388034373194 L 195 55.572909556873725 L 196 53.33048361461397 L 197 51.32269761074264 L 198 49.552763574561254 L 199 48.02351302296174 L 200 46.73739243060413 L 201 45.69645931607829 L 202 44.902378950313675 L 203 44.356421692500646 L 204 44.05946095778708 L 205 44.01197182000027 L 206 44.21403025163016 L 207 44.665313002289736 L 208 45.365098115846365 L 209 46.312266085397965 L 210 47.50530164424487 L 211 48.942296189993726 L 212 50.62095083791371 L 213 52.53858009866207 L 214 54.692116174494174 L 215 57.078113867084994 L 216 59.692756089112294 L 217 62.5318599707812 L 218 65.59088355152448 L 219 68.8649330461696 L 220 72.348770673952 L 221 76.036823037846 L 222 79.92319004081229 L 223 84.00165432469316 L 224 88.2656912166606 L 225 92.7084791673001 L 226 97.32291066363483 L 227 102.10160359963024 L 228 107.03691308598883 L 229 112.12094368034232 L 230 117.3455620182751 L 231 122.70240982497225 L 232 128.18291728667634 L 233 133.77831676056118 L 234 139.47965680109013 L 235 145.27781648041938 L 236 151.16351997993672 L 237 157.12735142959272 L 238 163.159769971284 L 239 169.25112502219145 L 240 175.3916717136532 L 241 181.57158648087642 L 242 187.78098277854502 L 243 194.00992689718328 L 244 200.24845385497196 L 245 206.48658333959332 L 246 212.71433567460198 L 247 218.92174778477823 L 248 225.0988891349231 L 249 231.2358776165962 L 250 237.32289535738124 L 251 243.35020442738755 L 252 249.3081624178604 L 253 255.1872378669783 L 254 260.9780255081586 L 255 266.6712613164775 L 256 272.2578373291339 L 257 277.72881621624686 L 258 283.075445578677 L 259 288.2891719499977 L 260 293.3616544802173 L 261 298.2847782793592 L 262 303.0506673995554 L 263 307.651697434882 L 264 312.0805077187837 L 265 316.3300130995683 L 266 320.3934152751396 L 267 324.2642136688295 L 268 327.93621582893434 L 269 331.4035473353167 L 270 334.6606611972243 L 271 337.70234672729197 L 272 340.52373787752987 L 273 343.12032102396233 L 274 345.48794218746326 L 275 347.62281367923663 L 276 349.5215201603106 L 277 351.1810241053512 L 278 352.598670662055 L 279 353.77219189834636 L 280 354.6997104305851 L 281 355.37974242697976 L 282 355.8111999814017 L 283 355.99339285380347 L 284 355.92602957445473 L 285 355.6092179102325 L 286 355.0434646922166 L 287 354.2296750048683 L 288 353.1691507380881 L 289 351.8635885044698 L 290 350.3150769250821 L 291 348.5260932881205 L 292 346.4994995857745 L 293 344.23853793565115 L 294 341.7468253940778 L 295 339.0283481695839 L 296 336.08745524581786 L 297 332.9288514241006 L 298 329.5575897967474 L 299 325.97906366319785 L 300 322.1989979018874 L 301 318.2234398116632 L 302 314.05874943739576 L 303 309.71158939526396 L 304 305.18891421399064 L 305 300.4979592090798 L 306 295.64622890785563 L 307 290.6414850438196 L 308 285.4917341395323 L 309 280.20521469788565 L 310 274.7903840222557 L 311 269.2559046866211 L 312 263.61063067729293 L 313 257.86359322842526 L 314 252.02398637396703 L 315 246.10115223916893 L 316 240.10456609517615 L 317 234.04382120061558 L 318 227.92861345442853 L 319 221.7687258845009 L 320 215.5740129969052 L 321 209.35438501079335 L 322 203.11979200415996 L 323 196.88020799584004 L 324 190.64561498920665 L 325 184.4259870030948 L 326 178.2312741154991 L 327 172.07138654557141 L 328 165.95617879938436 L 329 159.89543390482376 L 330 153.898847760831 L 331 147.9760136260329 L 332 142.1364067715747 L 333 136.38936932270707 L 334 130.74409531337892 L 335 125.20961597774433 L 336 119.79478530211435 L 337 114.5082658604677 L 338 109.35851495618039 L 339 104.35377109214431 L 340 99.50204079092016 L 341 94.81108578600934 L 342 90.28841060473599 L 343 85.94125056260421 L 344 81.77656018833682 L 345 77.8010020981126 L 346 74.02093633680218 L 347 70.44241020325259 L 348 67.07114857589937 L 349 63.912544754182136 L 350 60.97165183041608 L 351 58.2531746059222 L 352 55.76146206434882 L 353 53.500500414225456 L 354 51.47390671187955 L 355 49.68492307491789 L 356 48.13641149553018 L 357 46.83084926191188 L 358 45.770324995131716 L 359 44.95653530778341 L 360 44.3907820897675 L 361 44.07397042554527 L 362 44.00660714619656 L 363 44.18880001859827 L 364 44.62025757302027 L 365 45.3002895694149 L 366 46.227808101653665 L 367 47.40132933794504 L 368 48.818975894648815 L 369 50.478479839689385 L 370 52.37718632076334 L 371 54.51205781253674 L 372 56.87967897603767 L 373 59.47626212247013 L 374 62.29765327270803 L 375 65.3393388027757 L 376 68.59645266468328 L 377 72.06378417106563 L 378 75.7357863311705 L 379 79.60658472486038 L 380 83.66998690043164 L 381 87.91949228121631 L 382 92.34830256511792 L 383 96.94933260044469 L 384 101.71522172064081 L 385 106.63834551978277 L 386 111.71082805000236 L 387 116.9245544213231 L 388 122.27118378375319 L 389 127.74216267086615 L 390 133.32873868352254 L 391 139.02197449184146 L 392 144.81276213302175 L 393 150.69183758213967 L 394 156.64979557261253 L 395 162.67710464261876 L 396 168.7641223834038 L 397 174.9011108650769 L 398 181.07825221522177 L 399 187.28566432539802 L 400 193.51341666040668 L 401 199.75154614502804 L 402 205.99007310281672 L 403 212.21901722145498 L 404 218.42841351912358 L 405 224.6083282863468 L 406 230.7488749778085 L 407 236.84023002871592 L 408 242.87264857040736 L 409 248.83648002006333 L 410 254.7221835195807 L 411 260.5203431989099 L 412 266.2216832394389 L 413 271.8170827133237 L 414 277.29759017502784 L 415 282.654437981725 L 416 287.8790563196577 L 417 292.9630869140112 L 418 297.8983964003698 L 419 302.6770893363652 L 420 307.2915208327 L 421 311.73430878333943 L 422 315.99834567530684 L 423 320.0768099591878 L 424 323.96317696215397 L 425 327.651229326048 L 426 331.1350669538304 L 427 334.4091164484755 L 428 337.46814002921883 L 429 340.3072439108877 L 430 342.921886132915 L 431 345.3078838255058 L 432 347.4614199013379 L 433 349.3790491620863 L 434 351.05770381000633 L 435 352.49469835575513 L 436 353.68773391460206 L 437 354.63490188415363 L 438 355.33468699771026 L 439 355.78596974836984 L 440 355.98802817999973 L 441 355.9405390422129 L 442 355.64357830749935 L 443 355.0976210496863 L 444 354.3035406839217 L 445 353.26260756939587 L 446 351.97648697703823 L 447 350.44723642543875 L 448 348.67730238925736 L 449 346.66951638538603 L 450 344.4270904431263 L 451 341.9536119656268 L 452 339.2530379908046 L 453 336.32968886092743 L 454 333.18824131098876 L 455 329.83372098692854 L 456 326.2714944056726 L 457 322.50726036984975 L 458 318.5470408509235 L 459 314.3971713553224 L 460 310.0642907889811 L 461 305.55533083650727 L 462 300.8775048719646 L 463 296.0382964190135 L 464 291.04544717886915 L 465 285.9069446452315 L 466 280.6310093259989 L 467 275.2260815922093 L 468 269.70080817524706 L 469 264.0640283339173 L 470 258.3247597135168 L 471 252.49218391952678 L 472 246.5756318290006 L 473 240.58456866315316 L 474 234.52857884502396 L 475 228.41735066644696 L 476 222.2606607888482 L 477 216.06835860267526 L 478 209.85035047047145 L 479 203.61658387881118 L 480 197.3770315244413 L 481 191.14167536009583 L 482 184.9204906254989 L 483 178.72342988911078 L 484 172.5604071261405 L 485 166.44128185830078 L 486 160.3758433806764 L 487 154.37379510094033 L 488 148.4447390159715 L 489 142.59816035070799 L 490 136.84341238381066 L 491 131.18970148441244 L 492 125.64607238389168 L 493 120.22139370623142 L 494 114.92434378011299 L 495 109.76339675544078 L 496 104.74680904651136 L 497 99.88260612351033 L 498 95.1785696734736 L 499 90.6422251512466 L 500 86.28082974036336 L 501 82.10136074309953 L 502 78.1105044182786 L 503 74.31464528468267 L 504 70.71985590718569 L 505 67.3318871819439 L 506 64.15615913618979 L 507 61.197752257343836 L 508 58.461399365319295 L 509 55.95147804101899 L 510 53.67200362314074 L 511 51.62662278449096 L 512 49.81860769808708 L 513 48.25085080237787 L 514 46.92586017395951 L 515 45.84575551518796 L 516 45.01226476310714 L 517 44.426721325118535 L 518 44.09006194581363 L 519 44.00282520838252 L 520 44.165150672995566 L 521 44.576778653536934 L 522 45.23705063304712 L 523 46.14491031720934 L 524 47.2989053241954 L 525 48.69718950816653 L 526 50.337525912713204 L 527 52.21729034950772 L 528 54.333475596446505 L 529 56.68269620856293 L 530 59.26119393401825 L 531 62.06484372650161 L 532 65.08916034442538 L 533 68.32930552635378 L 534 71.78009573119004 L 535 75.43601043073552 L 536 79.29120094135808 L 537 83.3394997806372 L 538 87.57443053402118 L 539 91.98921821570858 L 540 96.5768001071794 L 541 101.32983705603966 L 542 106.2407252170979 L 543 111.30160821689714 L 544 116.50438972223468 L 545 121.84074639257 L 546 127.3021411955921 L 547 132.87983706465207 L 548 138.56491087620392 L 549 144.34826772490072 L 550 150.22065547350107 L 551 156.17267955431691 L 552 162.1948179985159 L 553 168.27743666924212 L 554 174.41080467417805 L 555 180.58510993289838 L 556 186.79047487410347 L 557 193.01697223762852 L 558 199.25464095593995 L 559 205.49350208972072 L 560 211.72357479204226 L 561 217.93489227559272 L 562 224.11751775740822 L 563 230.26156035560797 L 564 236.35719091269425 L 565 242.39465772010703 L 566 248.36430211887918 L 567 254.25657395142844 L 568 260.0620468397741 L 569 265.7714332657292 L 570 271.3755994289501 L 571 276.865579859067 L 572 282.2325917585254 L 573 287.4680490531873 L 574 292.56357612821955 L 575 297.5110212272896 L 576 302.30246949363794 L 577 306.9302556321592 L 578 311.38697617224034 L 579 315.6655013117334 L 580 319.75898632311885 L 581 323.6608825036083 L 582 327.3649476516735 L 583 330.8652560532356 L 584 334.156207961545 L 585 337.2325385555805 L 586 340.0893263626408 L 587 342.7220011316498 L 588 345.12635114458453 L 589 347.2985299543252 L 590 349.23506253814935 L 591 350.9328508570279 L 592 352.3891788118261 L 593 353.6017165884832 L 594 354.5685243852172 L 595 355.2880555157949 L 596 355.759158883899 L 597 355.9810808246373 L 598 355.95346631024535 L 599 355.6763595180555 L 600 355.1502037598223 L 601 354.37584077251836 L 602 353.3545093717346 L 603 352.08784346984 L 604 350.57786946206977 L 605 348.82700298472594 L 606 346.8380450506739 L 607 344.61417756831975 L 608 342.1589582512355 L 609 339.4763149265764 L 610 336.57053925139485 L 611 333.4462798469058 L 612 330.108534861683 L 613 326.5626439756888 L 614 322.814279857924 L 615 318.8694390913692 L 616 314.73443257972923 L 617 310.4158754513354 L 618 305.9206764763498 L 619 301.25602701420814 L 620 296.4293895089772 L 621 291.4484855510381 L 622 286.3212835241869 L 623 281.05598585792234 L 624 275.6610159053063 L 625 270.1450044673978 L 626 264.51677598581114 L 627 258.78533442549167 L 628 252.95984887029425 L 629 247.04963885440264 L 630 241.0641594530652 L 631 235.01298615648943 L 632 228.90579955110223 L 633 222.7523698326747 L 634 216.56254117609518 L 635 210.3462159867873 L 636 204.1133390589759 L 637 197.87388166613536 L 638 191.63782560908157 L 639 185.4151472472176 L 640 179.21580153848902 L 641 173.0497061135727 L 642 166.92672540978558 L 643 160.85665489008687 L 644 154.84920537242937 L 645 148.9139874945199 L 646 143.06049633885132 L 647 137.29809624259406 L 648 131.63600581665617 L 649 126.0832831978704 L 650 120.64881155790971 L 651 115.34128489210562 L 652 110.16919411091123 L 653 105.14081345625644 L 654 100.26418726452417 L 655 95.54711709733024 L 656 90.99714926068711 L 657 86.62156273252576 L 658 82.42735751788219 L 659 78.42124345038413 L 660 74.60962945794714 L 661 70.99861330985851 L 662 67.59397186164583 L 663 64.40115181334178 L 664 61.42526099592473 L 665 58.671060199879946 L 666 56.14295555894941 L 667 53.84499150125856 L 668 51.780844279093344 L 669 49.95381608768142 L 670 48.366829782383746 L 671 47.022424202749875 L 672 45.92275011091587 L 673 45.06956675084413 L 674 44.46423903390797 L 675 44.10773535532485 L 676 44.000626044930385 L 677 44.14308245477247 L 678 44.5348766849844 L 679 45.17538194837621 L 680 46.063573573160255 L 681 47.198030642207726 L 682 48.576938266212636 L 683 50.198090487127985 L 684 52.05889380722752 L 685 54.156371338149455 L 686 56.48716756328213 L 687 59.04755370587554 L 688 61.83343369428792 L 689 64.8403507148274 L 690 68.06349434170227 L 691 71.4977082326771 L 692 75.13749837811932 L 693 78.97704189024363 L 694 83.01019631848926 L 695 87.23050947613174 L 696 91.63122976240395 L 697 96.20531696361846 L 698 100.9454535160062 L 699 105.84405621225896 L 700 110.89328833304178 L 701 116.08507218407371 L 702 121.41110201871484 L 703 126.86285732538835 L 704 132.43161645858316 L 705 138.10847059162427 L 706 143.88433796889692 L 707 149.7499784347163 L 708 155.6960082156075 L 709 161.7129149323393 L 710 167.79107281770374 L 711 173.92075811568824 L 712 180.09216463741302 L 713 186.2954194489393 L 714 192.52059866585964 L 715 198.75774332939378 L 716 204.99687533860055 L 717 211.22801341320852 L 718 217.4411890615374 L 719 223.6264625279561 L 720 229.77393869437356 L 721 235.87378291031456 L 722 241.91623672626488 L 723 247.8916335051065 L 724 253.7904138866774 L 725 259.6031410807054 L 726 265.32051596366296 L 727 270.9333919553788 L 728 276.432789651616 L 729 281.80991118920326 L 730 287.05615432073756 L 731 292.1631261763479 L 732 297.1226566904943 L 733 301.92681167233144 L 734 306.56790549871926 L 735 311.0385134095832 L 736 315.33148338594464 L 737 319.4399475916266 L 738 323.3573333603248 L 739 327.07737371047403 L 740 330.59411737108053 L 741 333.9019383024861 L 742 336.99554469683073 L 743 339.869987443818 L 744 342.5206680482345 L 745 344.94334598656167 L 746 347.13414549090817 L 747 349.08956174941295 L 748 350.8064665131956 L 749 352.28211310088767 L 750 353.5141407927364 L 751 354.5005786072535 L 752 355.2398484543646 L 753 355.7307676600169 L 754 355.97255085820507 L 755 355.9648112473898 L 756 355.7075612092972 L 757 355.20121228911125 L 758 354.44657453708885 L 759 353.4448552126525 L 760 352.1976568530326 L 761 350.7069747095496 L 762 348.97519355563793 L 763 347.0050838717169 L 764 344.79979741301327 L 765 342.3628621674248 L 766 339.69817671149235 L 767 336.8100039735101 L 768 333.70296441374785 L 769 330.3820286327015 L 770 326.85250941919185 L 771 323.1200532510373 L 772 319.19063126189155 L 773 315.07052968870545 L 774 310.76633981508746 L 775 306.284947426658 L 776 301.63352179525873 L 777 296.8195042096487 L 778 291.85059607102926 L 779 286.7347465724445 L 780 281.4801399817701 L 781 276.0951825486277 L 782 270.58848905618066 L 783 264.9688690393178 L 784 259.2453126912787 L 785 253.42697648125954 L 786 247.52316850601753 L 787 241.5433335989006 L 788 235.49703822013112 L 789 229.39395515250706 L 790 223.24384802701502 L 791 217.0565557031023 L 792 210.841976528603 L 793 204.61005250448957 L 794 198.3707533797944 L 795 192.1340607021369 L 796 185.90995184937898 L 797 179.70838406794542 L 798 173.53927854335598 L 799 167.41250452844375 " stroke="white" stroke-width="10" fill="none"/></svg>