<svg width="800" height="400" xmlns="http://www.w3.org/2000/svg"><rect width="800" height="400" fill="black"/><line x1="0" y1="200" x2="800" y2="200" stroke="white" stroke-width="1"/><line x1="400" y1="0" x2="400" y2="400" stroke="white" stroke-width="1"/><path d="M 0 185.60483416674674 L 1 187.53115701379335 L 2 189.47742734974 L 3 191.4405315572312 L 4 193.41732908830835 L 5 195.40465748861592 L 6 197.39933745665434 L 7 199.39817792998358 L 8 201.3979811902431 L 9 203.39554797881817 L 10 205.3876826149722 L 11 207.37119810825317 L 12 209.34292125699943 L 13 211.29969772478464 L 14 213.23839708668388 L 15 215.1559178372851 L 16 217.04919235243682 L 17 218.9151917967916 L 18 220.7509309692973 L 19 222.5534730788812 L 20 224.31993444269 L 21 226.04748909936637 L 22 227.73337332998517 L 23 229.37489007941335 L 24 230.96941327102354 L 25 232.51439200785583 L 26 234.00735465350928 L 27 235.44591278623255 L 28 236.82776501988928 L 29 238.15070068568508 L 30 239.41260336876582 L 31 240.6114542940302 L 32 241.745335555739 L 33 242.81243318575525 L 34 243.81104005550623 L 35 244.7395586070252 L 36 245.59650340870306 L 37 246.3805035316623 L 38 247.09030474295056 L 39 247.72477151204606 L 40 248.28288882746386 L 41 248.76376382055804 L 42 249.16662719392076 L 43 249.4908344520943 L 44 249.7358669326261 L 45 249.90133263581808 L 46 249.98696685184265 L 47 249.9926325842218 L 48 249.91832076899237 L 49 249.76415028920638 L 50 249.53036778474353 L 51 249.21734725774002 L 52 248.82558947426486 L 53 248.35572116320117 L 54 247.80849401361337 L 55 247.18478347220525 L 56 246.48558734279186 L 57 245.71202419002645 L 58 244.86533154993538 L 59 243.94686395012474 L 60 242.9580907428248 L 61 241.90059375424033 L 62 240.77606475396564 L 63 239.58630274851456 L 64 238.3332111032933 L 65 237.01879449762242 L 66 235.64515571767694 L 67 234.21449229247756 L 68 232.72909297831256 L 69 231.19133409721647 L 70 229.60367573536115 L 71 227.96865780744332 L 72 226.28889599336233 L 73 224.56707755369072 L 74 222.80595703063017 L 75 221.00835184133206 L 76 219.1771377706305 L 77 217.3152443704004 L 78 215.42565027289953 L 79 213.51137842559183 L 80 211.57549125507694 L 81 209.62108576786028 L 82 207.65128859580398 L 83 205.6692509941821 L 84 203.6781438003454 L 85 201.68115236105683 L 86 199.6814714366174 L 87 197.68230008993015 L 88 195.6868365686828 L 89 193.69827318883304 L 90 191.71979122758452 L 91 189.75455583402146 L 92 187.80571096554587 L 93 185.87637435821574 L 94 183.96963253903309 L 95 182.08853588815856 L 96 180.23609375895452 L 97 178.41526966366092 L 98 176.62897653240864 L 99 174.88007205315202 L 100 173.17135409997826 L 101 171.5055562571053 L 102 169.88534344573046 L 103 168.31330766072506 L 104 166.79196382399525 L 105 165.32374576114387 L 106 163.91100230786824 L 107 162.5559935523245 L 108 161.26088721946832 L 109 160.0277552031577 L 110 158.85857025156457 L 111 157.7552028111987 L 112 156.7194180345921 L 113 155.75287295643182 L 114 154.8571138426575 L 115 154.03357371676623 L 116 153.2835700672801 L 117 152.60830274004618 L 118 152.0088520187386 L 119 151.4861768966355 L 120 151.04111354243412 L 121 150.67437396255949 L 122 150.3865448621057 L 123 150.17808670623324 L 124 150.04933298352285 L 125 150.00048967246482 L 126 150.03163491193752 L 127 150.14271887620174 L 128 150.33356385461133 L 129 150.60386453591224 L 130 150.9531884966754 L 131 151.38097689308222 L 132 151.88654535495493 L 133 152.4690850806035 L 134 153.12766413073533 L 135 153.8612289193597 L 136 154.6686058993001 L 137 155.54850343962005 L 138 156.49951389195635 L 139 157.52011584245682 L 140 158.60867654571732 L 141 159.76345453682666 L 142 160.98260241733843 L 143 162.26416981071495 L 144 163.60610648251316 L 145 165.0062656203229 L 146 166.46240726820815 L 147 167.97220191015947 L 148 169.53323419682195 L 149 171.14300680953951 L 150 172.7989444555315 L 151 174.49839798781227 L 152 176.238648643261 L 153 178.0169123920625 L 154 179.8303443915615 L 155 181.6760435374036 L 156 183.55105710468365 L 157 185.45238547167546 L 158 187.3769869185871 L 159 189.32178249366308 L 160 191.28366093885103 L 161 193.25948366715022 L 162 195.24608978368195 L 163 197.24030114244627 L 164 199.23892743067842 L 165 201.2387712726679 L 166 203.2366333448783 L 167 205.22931749418177 L 168 207.21363585102287 L 169 209.18641392932915 L 170 211.1444957050124 L 171 213.08474866493313 L 172 215.00406881825424 L 173 216.89938566216338 L 174 218.76766709402312 L 175 220.60592426208783 L 176 222.41121634702924 L 177 224.18065526662 L 178 225.91141029604876 L 179 227.60071259647665 L 180 229.24585964458808 L 181 230.84421955605222 L 182 232.39323529597587 L 183 233.89042876961435 L 184 235.3334047867939 L 185 236.71985489370567 L 186 238.0475610659387 L 187 239.31439925684646 L 188 240.51834279556775 L 189 241.6574656292683 L 190 242.72994540441402 L 191 243.73406638214826 L 192 244.6682221831076 L 193 245.5309183572865 L 194 246.3207747748383 L 195 247.03652783398866 L 196 247.67703248252872 L 197 248.24126404965455 L 198 248.72831988522177 L 199 249.1374208037931 L 200 249.4679123311691 L 201 249.71926575140702 L 202 249.89107895265371 L 203 249.9830770704387 L 204 249.99511292739876 L 205 249.92716726873024 L 206 249.77934879299275 L 207 249.55189397821448 L 208 249.24516670357804 L 209 248.85965766729115 L 210 248.3959836015743 L 211 247.85488628602084 L 212 247.23723136090769 L 213 246.54400694235568 L 214 245.77632204155447 L 215 244.93540479058134 L 216 244.02260047765174 L 217 243.03936939494508 L 218 241.987284502449 L 219 240.86802891155864 L 220 239.68339319245766 L 221 238.43527250958778 L 222 237.1256635897901 L 223 235.75666152796788 L 224 234.33045643538193 L 225 232.84932993593947 L 226 231.3156515160828 L 227 229.73187473411645 L 228 228.10053329503714 L 229 226.42423699714655 L 230 224.7056675569304 L 231 222.9475743188845 L 232 221.15276985714985 L 233 219.32412547599398 L 234 217.46456661633675 L 235 215.5770681756689 L 236 213.66464974885062 L 237 211.730370797404 L 238 209.77732575502722 L 239 207.8086390771606 L 240 205.8274602425247 L 241 203.83695871462595 L 242 201.84031887129134 L 243 199.8407349103431 L 244 197.84140573956356 L 245 195.84552985912518 L 246 193.8563002446725 L 247 191.87689923924228 L 248 189.91049346219356 L 249 187.96022874329205 L 250 186.0292250900537 L 251 184.12057169639826 L 252 182.23732200059786 L 253 180.3824888004273 L 254 178.5590394333302 L 255 176.76989102931213 L 256 175.01790584415488 L 257 173.30588668041779 L 258 171.63657240355155 L 259 170.01263356029781 L 260 168.43666810638393 L 261 166.91119725034812 L 262 165.43866142014366 L 263 164.02141635897462 L 264 162.66172935660938 L 265 161.36177562220064 L 266 160.1236348044148 L 267 158.94928766443763 L 268 157.84061290717915 L 269 156.7993841757463 L 270 155.82726721399234 L 271 154.92581720168226 L 272 154.09647626653665 L 273 153.34057117713513 L 274 152.65931122036955 L 275 152.05378626684308 L 276 151.52496502730958 L 277 151.07369350294306 L 278 150.70069363191647 L 279 150.40656213445436 L 280 150.19176955820797 L 281 150.0566595254793 L 282 150.00144818349878 L 283 150.0262238586358 L 284 150.13094691509534 L 285 150.31544981832678 L 286 150.57943740304347 L 287 150.92248734542423 L 288 151.3440508387413 L 289 151.84345347133416 L 290 152.4198963055242 L 291 153.07245715574462 L 292 153.8000920638406 L 293 154.60163696917974 L 294 155.47580957090057 L 295 156.4212113793206 L 296 157.43632995322127 L 297 158.51954131943145 L 298 159.66911257083797 L 299 160.88320463866737 L 300 162.1598752346036 L 301 163.49708195803504 L 302 164.89268556345974 L 303 166.3444533828219 L 304 167.85006289730455 L 305 169.40710545286404 L 306 171.01309011356287 L 307 172.66544764653565 L 308 174.36153463221382 L 309 176.09863769323286 L 310 177.8739778352574 L 311 179.68471489277917 L 312 181.52795207277615 L 313 183.4007405889633 L 314 185.30008437922163 L 315 187.22294489865843 L 316 189.166245980631 L 317 191.126878757957 L 318 193.10170663643865 L 319 195.08757031274456 L 320 197.081292828621 L 321 199.0796846533473 L 322 201.0795487863048 L 323 203.07768587149565 L 324 205.0708993158301 L 325 207.05600040299336 L 326 209.02981339471165 L 327 210.98918061125585 L 328 212.93096748305555 L 329 214.85206756534163 L 330 216.74940750779524 L 331 218.6199519712528 L 332 220.46070848360085 L 333 222.26873222709355 L 334 224.0411307494324 L 335 225.7750685910732 L 336 227.46777182135634 L 337 229.1165324762041 L 338 230.7187128902856 L 339 232.27174991671853 L 340 233.77315902755754 L 341 235.2205382885088 L 342 236.61157220151256 L 343 237.9440354090461 L 344 239.215796254221 L 345 240.42482019097952 L 346 241.56917303893414 L 347 242.6470240776438 L 348 243.65664897537582 L 349 244.596432547669 L 350 245.4648713412841 L 351 246.26057603940842 L 352 246.98227368426626 L 353 247.62880971357976 L 354 248.1991498076224 L 355 248.69238154390976 L 356 249.10771585688093 L 357 249.44448830023507 L 358 249.7021601099038 L 359 249.88031906595867 L 360 249.97868015207524 L 361 249.9970860114983 L 362 249.93550719877913 L 363 249.794042226882 L 364 249.5729174095843 L 365 249.272486499423 L 366 248.8932301217658 L 367 248.43575500591328 L 368 247.90079301446124 L 369 247.28919997247695 L 370 246.6019542983613 L 371 245.84015543858834 L 372 245.00502210882524 L 373 244.0978903442474 L 374 243.1202113621669 L 375 242.0735492403948 L 376 240.95957841504992 L 377 239.7800810018183 L 378 238.53694394494846 L 379 237.23215599854296 L 380 235.86780454497614 L 381 234.44607225552755 L 382 232.96923359857365 L 383 231.43965120092344 L 384 229.8597720681196 L 385 228.23212366975176 L 386 226.55930989604417 L 387 224.84400689218683 L 388 223.08895877707414 L 389 221.2969732533 L 390 219.47091711543254 L 391 217.6137116637545 L 392 215.7283280308059 L 393 213.8177824282057 L 394 211.88513132135674 L 395 209.93346653975306 L 396 207.9659103307123 L 397 205.98561036444596 L 398 203.99573469845865 L 399 201.9994667093317 L 400 200 L 401 198.0005332906683 L 402 196.00426530154135 L 403 194.01438963555404 L 404 192.0340896692877 L 405 190.06653346024694 L 406 188.11486867864326 L 407 186.1822175717943 L 408 184.2716719691941 L 409 182.3862883362455 L 410 180.52908288456746 L 411 178.7030267467 L 412 176.91104122292586 L 413 175.15599310781317 L 414 173.44069010395583 L 415 171.76787633024824 L 416 170.1402279318804 L 417 168.56034879907656 L 418 167.03076640142635 L 419 165.55392774447245 L 420 164.13219545502386 L 421 162.76784400145704 L 422 161.46305605505154 L 423 160.2199189981817 L 424 159.04042158495008 L 425 157.9264507596052 L 426 156.8797886378331 L 427 155.9021096557526 L 428 154.99497789117476 L 429 154.15984456141166 L 430 153.3980457016387 L 431 152.71080002752305 L 432 152.09920698553876 L 433 151.56424499408672 L 434 151.1067698782342 L 435 150.727513500577 L 436 150.4270825904157 L 437 150.205957773118 L 438 150.06449280122087 L 439 150.0029139885017 L 440 150.02131984792476 L 441 150.11968093404133 L 442 150.2978398900962 L 443 150.55551169976493 L 444 150.89228414311907 L 445 151.30761845609024 L 446 151.8008501923776 L 447 152.37119028642024 L 448 153.01772631573374 L 449 153.73942396059158 L 450 154.5351286587159 L 451 155.403567452331 L 452 156.34335102462418 L 453 157.3529759223562 L 454 158.43082696106586 L 455 159.57517980902048 L 456 160.784203745779 L 457 162.0559645909539 L 458 163.38842779848744 L 459 164.7794617114912 L 460 166.22684097244246 L 461 167.72825008328147 L 462 169.2812871097144 L 463 170.8834675237959 L 464 172.53222817864366 L 465 174.2249314089268 L 466 175.9588692505676 L 467 177.73126777290645 L 468 179.53929151639915 L 469 181.3800480287472 L 470 183.25059249220476 L 471 185.14793243465837 L 472 187.06903251694445 L 473 189.01081938874415 L 474 190.97018660528835 L 475 192.94399959700664 L 476 194.9291006841699 L 477 196.92231412850435 L 478 198.9204512136952 L 479 200.9203153466527 L 480 202.918707171379 L 481 204.91242968725544 L 482 206.89829336356135 L 483 208.873121242043 L 484 210.833754019369 L 485 212.77705510134157 L 486 214.69991562077837 L 487 216.5992594110367 L 488 218.47204792722385 L 489 220.31528510722083 L 490 222.1260221647426 L 491 223.90136230676714 L 492 225.63846536778618 L 493 227.33455235346435 L 494 228.98690988643713 L 495 230.59289454713596 L 496 232.14993710269545 L 497 233.6555466171781 L 498 235.10731443654026 L 499 236.50291804196496 L 500 237.8401247653964 L 501 239.11679536133263 L 502 240.33088742916203 L 503 241.48045868056855 L 504 242.56367004677873 L 505 243.5787886206794 L 506 244.52419042909943 L 507 245.39836303082026 L 508 246.1999079361594 L 509 246.92754284425538 L 510 247.5801036944758 L 511 248.15654652866584 L 512 248.6559491612587 L 513 249.07751265457577 L 514 249.42056259695653 L 515 249.68455018167322 L 516 249.86905308490466 L 517 249.9737761413642 L 518 249.99855181650122 L 519 249.9433404745207 L 520 249.80823044179203 L 521 249.59343786554564 L 522 249.29930636808353 L 523 248.92630649705694 L 524 248.47503497269042 L 525 247.94621373315692 L 526 247.34068877963045 L 527 246.65942882286487 L 528 245.90352373346335 L 529 245.07418279831774 L 530 244.17273278600766 L 531 243.2006158242537 L 532 242.15938709282085 L 533 241.05071233556237 L 534 239.8763651955852 L 535 238.63822437779936 L 536 237.33827064339062 L 537 235.97858364102538 L 538 234.56133857985634 L 539 233.08880274965188 L 540 231.56333189361607 L 541 229.98736643970219 L 542 228.36342759644845 L 543 226.69411331958221 L 544 224.98209415584512 L 545 223.23010897068787 L 546 221.4409605666698 L 547 219.6175111995727 L 548 217.76267799940214 L 549 215.87942830360174 L 550 213.9707749099463 L 551 212.03977125670795 L 552 210.08950653780644 L 553 208.12310076075772 L 554 206.1436997553275 L 555 204.15447014087482 L 556 202.15859426043644 L 557 200.1592650896569 L 558 198.15968112870866 L 559 196.16304128537405 L 560 194.1725397574753 L 561 192.1913609228394 L 562 190.22267424497278 L 563 188.269629202596 L 564 186.33535025114938 L 565 184.4229318243311 L 566 182.53543338366325 L 567 180.67587452400602 L 568 178.84723014285015 L 569 177.0524256811155 L 570 175.2943324430696 L 571 173.57576300285345 L 572 171.89946670496286 L 573 170.26812526588355 L 574 168.6843484839172 L 575 167.15067006406053 L 576 165.66954356461807 L 577 164.24333847203212 L 578 162.8743364102099 L 579 161.56472749041222 L 580 160.31660680754234 L 581 159.13197108844136 L 582 158.012715497551 L 583 156.96063060505492 L 584 155.97739952234826 L 585 155.06459520941866 L 586 154.22367795844553 L 587 153.45599305764432 L 588 152.76276863909231 L 589 152.14511371397916 L 590 151.6040163984257 L 591 151.14034233270885 L 592 150.75483329642196 L 593 150.44810602178552 L 594 150.22065120700725 L 595 150.07283273126976 L 596 150.00488707260124 L 597 150.0169229295613 L 598 150.10892104734629 L 599 150.28073424859298 L 600 150.5320876688309 L 601 150.8625791962069 L 602 151.27168011477823 L 603 151.75873595034545 L 604 152.32296751747128 L 605 152.96347216601134 L 606 153.6792252251617 L 607 154.4690816427135 L 608 155.3317778168924 L 609 156.26593361785174 L 610 157.27005459558598 L 611 158.3425343707317 L 612 159.48165720443225 L 613 160.68560074315354 L 614 161.9524389340613 L 615 163.28014510629433 L 616 164.6665952132061 L 617 166.10957123038565 L 618 167.60676470402413 L 619 169.15578044394778 L 620 170.75414035541192 L 621 172.39928740352335 L 622 174.08858970395124 L 623 175.81934473338 L 624 177.58878365297076 L 625 179.39407573791217 L 626 181.23233290597688 L 627 183.10061433783662 L 628 184.99593118174576 L 629 186.91525133506687 L 630 188.8555042949876 L 631 190.81358607067085 L 632 192.78636414897713 L 633 194.77068250581823 L 634 196.7633666551217 L 635 198.7612287273321 L 636 200.76107256932158 L 637 202.75969885755373 L 638 204.75391021631805 L 639 206.74051633284978 L 640 208.71633906114897 L 641 210.67821750633692 L 642 212.6230130814129 L 643 214.54761452832454 L 644 216.44894289531635 L 645 218.3239564625964 L 646 220.1696556084385 L 647 221.9830876079375 L 648 223.761351356739 L 649 225.50160201218773 L 650 227.2010555444685 L 651 228.85699319046049 L 652 230.46676580317805 L 653 232.02779808984053 L 654 233.53759273179185 L 655 234.9937343796771 L 656 236.39389351748684 L 657 237.73583018928505 L 658 239.01739758266157 L 659 240.23654546317334 L 660 241.39132345428268 L 661 242.47988415754318 L 662 243.50048610804365 L 663 244.45149656037995 L 664 245.3313941006999 L 665 246.1387710806403 L 666 246.87233586926467 L 667 247.5309149193965 L 668 248.11345464504507 L 669 248.61902310691778 L 670 249.0468115033246 L 671 249.39613546408776 L 672 249.66643614538867 L 673 249.85728112379826 L 674 249.96836508806248 L 675 249.99951032753518 L 676 249.95066701647715 L 677 249.82191329376676 L 678 249.6134551378943 L 679 249.32562603744051 L 680 248.95888645756588 L 681 248.5138231033645 L 682 247.9911479812614 L 683 247.39169725995382 L 684 246.7164299327199 L 685 245.96642628323377 L 686 245.1428861573425 L 687 244.24712704356818 L 688 243.2805819654079 L 689 242.2447971888013 L 690 241.14142974843543 L 691 239.9722447968423 L 692 238.73911278053168 L 693 237.4440064476755 L 694 236.08899769213176 L 695 234.67625423885613 L 696 233.20803617600475 L 697 231.68669233927494 L 698 230.11465655426954 L 699 228.4944437428947 L 700 226.82864590002174 L 701 225.11992794684798 L 702 223.37102346759136 L 703 221.58473033633908 L 704 219.76390624104548 L 705 217.91146411184144 L 706 216.03036746096691 L 707 214.12362564178426 L 708 212.19428903445413 L 709 210.24544416597854 L 710 208.28020877241548 L 711 206.30172681116696 L 712 204.3131634313172 L 713 202.31769991006985 L 714 200.3185285633826 L 715 198.31884763894317 L 716 196.3218561996546 L 717 194.3307490058179 L 718 192.34871140419602 L 719 190.37891423213972 L 720 188.42450874492306 L 721 186.48862157440817 L 722 184.57434972710047 L 723 182.6847556295996 L 724 180.8228622293695 L 725 178.99164815866794 L 726 177.19404296936983 L 727 175.43292244630928 L 728 173.71110400663767 L 729 172.03134219255668 L 730 170.39632426463885 L 731 168.80866590278353 L 732 167.27090702168744 L 733 165.78550770752244 L 734 164.35484428232306 L 735 162.98120550237758 L 736 161.6667888967067 L 737 160.41369725148544 L 738 159.22393524603436 L 739 158.09940624575967 L 740 157.0419092571752 L 741 156.05313604987526 L 742 155.13466845006462 L 743 154.28797580997355 L 744 153.51441265720814 L 745 152.81521652779475 L 746 152.19150598638663 L 747 151.64427883679883 L 748 151.17441052573514 L 749 150.78265274225998 L 750 150.46963221525647 L 751 150.23584971079362 L 752 150.08167923100763 L 753 150.0073674157782 L 754 150.01303314815735 L 755 150.09866736418192 L 756 150.2641330673739 L 757 150.5091655479057 L 758 150.83337280607924 L 759 151.23623617944196 L 760 151.71711117253614 L 761 152.27522848795394 L 762 152.90969525704944 L 763 153.6194964683377 L 764 154.40349659129694 L 765 155.2604413929748 L 766 156.18895994449377 L 767 157.18756681424475 L 768 158.254664444261 L 769 159.3885457059698 L 770 160.58739663123418 L 771 161.84929931431492 L 772 163.17223498011072 L 773 164.55408721376745 L 774 165.99264534649072 L 775 167.48560799214417 L 776 169.03058672897646 L 777 170.62510992058665 L 778 172.26662667001483 L 779 173.95251090063363 L 780 175.68006555731 L 781 177.4465269211188 L 782 179.2490690307027 L 783 181.0848082032084 L 784 182.95080764756318 L 785 184.8440821627149 L 786 186.76160291331612 L 787 188.70030227521536 L 788 190.65707874300057 L 789 192.62880189174683 L 790 194.6123173850278 L 791 196.60445202118183 L 792 198.6020188097569 L 793 200.60182207001642 L 794 202.60066254334566 L 795 204.59534251138408 L 796 206.58267091169165 L 797 208.5594684427688 L 798 210.52257265026 L 799 212.46884298620665 " stroke="white" stroke-width="10" fill="none"/></svg>